<svg width="23" height="21" viewBox="0 0 23 21" fill="none" xmlns="http://www.w3.org/2000/svg">
<path d="M14.1605 10.1937C13.9929 10.1937 13.8373 10.1476 13.699 10.0735V10.0755C13.699 10.3392 13.5965 10.5868 13.4106 10.7723C13.2246 10.9582 12.9771 11.0607 12.7138 11.0607C12.5437 11.0607 12.3861 11.0135 12.2464 10.9374C12.2323 11.1787 12.1358 11.4041 11.9638 11.5763C11.7778 11.7623 11.5304 11.8648 11.2668 11.8648C10.7432 11.8648 10.3179 11.4532 10.2873 10.9373C10.1253 11.0248 9.94209 11.0707 9.75315 11.0586C9.23803 11.0248 8.83463 10.5798 8.83463 10.0451V5.61349L8.33 6.48773C8.13781 6.8221 7.77802 7.02971 7.39065 7.02971C7.2019 7.02971 7.01544 6.98019 6.8503 6.88556C6.64466 6.76634 6.49756 6.57497 6.43638 6.34601C6.37489 6.11692 6.4067 5.87732 6.5256 5.67199C6.52576 5.67199 8.17667 2.81309 8.27738 2.63748C8.28935 2.61108 8.32347 2.5345 8.35249 2.46923C8.38021 2.40691 8.40399 2.34295 8.42678 2.27867C8.92465 0.873106 10.1574 3.34141e-06 11.6442 3.34141e-06C13.5748 3.34141e-06 15.1455 1.70322 15.1455 3.79678L15.1457 9.20827C15.1457 9.47164 15.0434 9.71911 14.8576 9.90526C14.6716 10.0912 14.4242 10.1937 14.1605 10.1937L14.1605 10.1937ZM11.6442 0.523547C10.3667 0.523547 9.34843 1.24514 8.92026 2.45376C8.89287 2.5305 8.86433 2.60725 8.83104 2.68203C8.73445 2.89867 8.73445 2.89867 8.70723 2.92982L8.70362 2.92671C8.56882 3.18106 8.16835 3.87458 6.97891 5.93401C6.93004 6.01847 6.91709 6.11654 6.94201 6.21034C6.96727 6.30414 7.02778 6.38319 7.11159 6.43156C7.37168 6.58096 7.72788 6.48453 7.87612 6.22624L8.86975 4.50595C8.92912 4.40345 9.04916 4.35311 9.16428 4.38426C9.27875 4.41493 9.35829 4.51874 9.35829 4.63714V10.0453C9.35829 10.3004 9.55081 10.5207 9.78747 10.5363C9.92391 10.5435 10.0512 10.4977 10.1468 10.4023C10.2337 10.3154 10.2816 10.1996 10.2816 10.0758V6.53877C10.2816 6.39413 10.3988 6.27687 10.5435 6.27687C10.6881 6.27687 10.8054 6.39397 10.8054 6.53877L10.8052 10.8797C10.8052 11.1342 11.0123 11.3414 11.2668 11.3414C11.3905 11.3414 11.5066 11.2935 11.5937 11.2066C11.6806 11.1195 11.7285 11.0034 11.7285 10.8797V6.53877C11.7285 6.39413 11.8456 6.27687 11.9904 6.27687C12.135 6.27687 12.2523 6.39396 12.2523 6.53877L12.2521 10.0351V10.0757C12.2521 10.3301 12.4592 10.5372 12.7139 10.5372C12.8374 10.5372 12.9532 10.4892 13.0408 10.4019C13.1277 10.3152 13.1756 10.1994 13.1756 10.0756V6.53858C13.1756 6.39394 13.2926 6.27669 13.4374 6.27669C13.5821 6.27669 13.6993 6.39378 13.6993 6.53858L13.699 9.20839C13.699 9.46307 13.9061 9.6702 14.1605 9.6702C14.2843 9.6702 14.4001 9.62215 14.487 9.5354C14.5742 9.44815 14.622 9.33204 14.622 9.20839L14.6221 3.7969C14.6221 1.99218 13.2863 0.523601 11.6442 0.523601L11.6442 0.523547Z" fill="#4CAF4F"/>
<path d="M3.87081 13.9549L7.67116 11.675C8.12935 11.3998 8.7189 11.5168 9.01278 11.9414C9.12003 12.096 9.1748 12.2762 9.18333 12.4597C9.32502 12.3858 9.47917 12.3456 9.63611 12.3456C9.71647 12.3456 9.79715 12.3556 9.87685 12.3755C10.1322 12.4392 10.3473 12.5988 10.4827 12.8245C10.6181 13.0504 10.6576 13.3153 10.5938 13.5703C10.535 13.8063 10.3915 14.0049 10.1919 14.1412C10.3314 14.2235 10.4518 14.3358 10.5374 14.4788C10.6729 14.7048 10.7124 14.9695 10.6488 15.2249C10.585 15.4799 10.4254 15.695 10.1994 15.8307L10.1981 15.8315C10.3352 15.9136 10.4535 16.0248 10.5381 16.1657C10.6737 16.3917 10.7132 16.6565 10.6494 16.9118C10.5855 17.167 10.4259 17.3822 10.2003 17.5176L5.55999 20.3014C4.69394 20.8208 3.69275 21.0001 2.74127 20.8057C1.78127 20.6096 0.986212 20.0578 0.502788 19.2519C-0.262251 17.9768 -0.147599 16.4704 0.801419 15.3206C0.844879 15.2682 0.887679 15.2147 0.926546 15.1593C0.967709 15.1007 1.01576 15.0318 1.03216 15.0082C1.13039 14.8328 2.73327 11.9448 2.7331 11.9452C2.89496 11.6531 3.19835 11.4878 3.51124 11.488C3.65719 11.488 3.80528 11.5239 3.94189 11.5996C4.10687 11.6918 4.24544 11.8261 4.34236 11.988C4.54161 12.3201 4.54867 12.7356 4.36106 13.0719L3.87081 13.9549ZM3.89361 12.2572C3.84277 12.1724 3.77291 12.1048 3.68747 12.057C3.51085 11.9592 3.28848 12.0229 3.19124 12.1988C2.04429 14.2651 1.65331 14.9693 1.50243 15.2199L1.50587 15.2207C1.49324 15.2627 1.49324 15.2627 1.35516 15.46C1.30826 15.5267 1.25726 15.5908 1.20528 15.654C0.389228 16.6427 0.294475 17.8869 0.951578 18.9825C1.35861 19.6611 2.03132 20.1264 2.84585 20.2927C3.66925 20.4601 4.5371 20.3043 5.29034 19.8523L9.93104 17.0684C10.037 17.005 10.1118 16.9041 10.1416 16.7846C10.1715 16.6652 10.1529 16.541 10.0893 16.4351C9.95843 16.217 9.67423 16.1453 9.45612 16.2767L7.16679 17.6501C7.04282 17.7246 6.88177 17.6846 6.80749 17.5604C6.73303 17.4364 6.77321 17.2756 6.89719 17.2011L9.18668 15.8277L9.93023 15.3816C10.0362 15.318 10.1111 15.2171 10.141 15.0979C10.1708 14.9784 10.1523 14.854 10.0886 14.7483C9.95761 14.53 9.67341 14.459 9.45547 14.5899L6.42243 16.4094C6.29813 16.484 6.13757 16.4436 6.06312 16.3197C5.98867 16.1957 6.02901 16.0348 6.15283 15.9604L9.87529 13.7273C9.98123 13.6637 10.056 13.563 10.0859 13.4434C10.1157 13.324 10.0972 13.1999 10.0337 13.0939C9.97024 12.9882 9.86939 12.9134 9.74984 12.8835C9.62963 12.8537 9.50598 12.8722 9.40037 12.9355L8.71128 13.349C8.71111 13.349 8.71111 13.3491 8.71095 13.3491H8.71078L5.67792 15.1686C5.55361 15.2434 5.39289 15.2031 5.31861 15.0789C5.24416 14.9549 5.2845 14.7941 5.40831 14.7196L8.44135 12.9001C8.54728 12.8365 8.62223 12.7356 8.65208 12.6164C8.68487 12.4855 8.65995 12.3517 8.58221 12.2395C8.44741 12.0446 8.15912 11.9927 7.94052 12.1241L3.30318 14.9061C3.20167 14.9668 3.07162 14.952 2.98651 14.8698C2.90123 14.7875 2.88204 14.6581 2.93944 14.5546L3.90373 12.8173C4.00048 12.6436 3.99671 12.4291 3.89356 12.2573L3.89361 12.2572Z" fill="#4CAF4F"/>
<path d="M22.0306 19.2517C21.5473 20.0577 20.7525 20.6094 19.7923 20.8056C18.8407 20.9996 17.8398 20.8206 16.9736 20.3013L12.3329 17.5174C12.1071 17.3819 11.9473 17.1667 11.8834 16.9112C11.8199 16.6562 11.8596 16.3914 11.9949 16.1657C12.0794 16.0247 12.1978 15.9135 12.335 15.8313L12.3337 15.8305C12.1079 15.695 11.9482 15.4799 11.8845 15.2247C11.8206 14.9695 11.8603 14.7045 11.9957 14.4786C12.083 14.3334 12.2025 14.2199 12.339 14.1394C12.1409 14.0031 11.9982 13.8052 11.9395 13.5704C11.8755 13.315 11.9152 13.0502 12.0507 12.8245C12.186 12.5987 12.4013 12.4391 12.6565 12.3753C12.7362 12.3553 12.817 12.3455 12.8971 12.3455C13.0542 12.3456 13.2083 12.3855 13.35 12.4596C13.3587 12.2761 13.4133 12.0959 13.5205 11.9412C13.8146 11.517 14.4036 11.3996 14.8625 11.6749L18.6627 13.9544L18.1729 13.0721C17.9849 12.7353 17.9918 12.3197 18.1911 11.9875C18.2882 11.8258 18.4269 11.6915 18.5927 11.5985C18.729 11.523 18.8766 11.4873 19.0222 11.4873C19.3349 11.4874 19.6386 11.6524 19.8003 11.9445C20.3638 12.9598 21.4271 14.8746 21.5019 15.0082C21.5178 15.0314 21.5658 15.1002 21.607 15.1588C21.6462 15.2144 21.6885 15.2675 21.7323 15.3203C22.6812 16.4705 22.7956 17.9768 22.0306 19.2517L22.0306 19.2517ZM21.3283 15.6541C21.2761 15.5909 21.225 15.5265 21.1784 15.4601C21.0367 15.259 21.0331 15.2538 21.0224 15.2011C20.8568 14.9271 20.4527 14.1996 19.342 12.1986C19.2446 12.0229 19.0232 11.9588 18.8469 12.0562C18.7602 12.1048 18.6905 12.1725 18.6396 12.2573C18.5366 12.429 18.5327 12.6435 18.6299 12.8176L19.5939 14.5545C19.6515 14.6581 19.6323 14.7874 19.5472 14.8697C19.4622 14.9522 19.3323 14.9666 19.2303 14.9059L14.593 12.1239C14.3744 11.9929 14.0863 12.0442 13.9511 12.2394C13.8734 12.3516 13.8486 12.4854 13.8811 12.6161C13.9109 12.7355 13.9859 12.8362 14.092 12.8998C14.0923 12.9 14.0925 12.9003 14.0928 12.9004L17.1249 14.7194C17.2489 14.7939 17.289 14.9546 17.2146 15.0788C17.1401 15.2026 16.9796 15.2431 16.8553 15.1685L13.1328 12.9354C13.0272 12.8721 12.9029 12.8534 12.7835 12.8834C12.6638 12.9132 12.5631 12.988 12.4996 13.0941C12.436 13.1999 12.4176 13.324 12.4472 13.4434C12.477 13.5628 12.5519 13.6637 12.6579 13.7273L13.3822 14.1617L16.3802 15.9604C16.5042 16.0349 16.5443 16.1956 16.4699 16.3197C16.3954 16.4435 16.2349 16.4839 16.1106 16.4094L13.0779 14.5899C12.8598 14.4587 12.5757 14.5299 12.4445 14.7483C12.3809 14.8543 12.3625 14.9784 12.3921 15.0978C12.4219 15.2172 12.4969 15.3179 12.603 15.3817L13.3465 15.8277L15.6357 17.2012C15.7596 17.2756 15.7998 17.4363 15.7254 17.5605C15.6509 17.6843 15.4904 17.725 15.3661 17.6502L13.0769 16.2767C12.9713 16.2134 12.8475 16.1947 12.7274 16.2248C12.608 16.2546 12.507 16.3294 12.4436 16.4352C12.3801 16.5411 12.3616 16.6654 12.3911 16.7846C12.4209 16.904 12.4959 17.0047 12.602 17.0685L17.2427 19.8524C17.9957 20.3042 18.8642 20.4606 19.6872 20.2927C20.5015 20.1264 21.1742 19.6612 21.5813 18.9826C22.239 17.8868 22.1444 16.6424 21.3286 15.654L21.3283 15.6541Z" fill="#4CAF4F"/>
</svg>
