<svg width="24" height="26" viewBox="0 0 24 26" fill="none" xmlns="http://www.w3.org/2000/svg">
<path d="M22.9703 25.0585V22.2742C22.9703 20.7974 22.3836 19.381 21.3393 18.3367C20.295 17.2924 18.8786 16.7057 17.4017 16.7057H16.0096C15.6404 16.7057 15.2863 16.559 15.0252 16.2979C14.7641 16.0368 14.6174 15.6827 14.6174 15.3135V8.35283C14.6174 7.6144 14.3241 6.90621 13.8019 6.38405C13.2798 5.8619 12.5716 5.56856 11.8332 5.56856V5.56856C11.0947 5.56856 10.3865 5.8619 9.86438 6.38405C9.34222 6.90621 9.04888 7.6144 9.04888 8.35283V20.8821L5.70775 16.4272C5.4484 16.0814 5.1121 15.8008 4.72549 15.6075C4.33888 15.4142 3.91257 15.3135 3.48032 15.3135H2.87613C1.67193 15.3135 0.696045 16.2894 0.696045 17.4936C0.696045 17.889 0.80324 18.2774 1.00649 18.6157L4.87246 25.0585M11.8332 1.39214V0ZM20.186 9.74497H21.5781ZM2.08818 9.74497H3.48032ZM5.34997 3.26178L4.36572 2.27754ZM18.3163 3.26178L19.3006 2.27754Z" fill="#4CAF4F"/>
<path d="M22.9703 25.0585V22.2742C22.9703 20.7974 22.3836 19.381 21.3393 18.3367C20.295 17.2924 18.8786 16.7057 17.4017 16.7057H16.0096C15.6404 16.7057 15.2863 16.559 15.0252 16.2979C14.7641 16.0368 14.6174 15.6827 14.6174 15.3135V8.35283C14.6174 7.6144 14.3241 6.90621 13.8019 6.38405C13.2798 5.8619 12.5716 5.56856 11.8332 5.56856V5.56856C11.0947 5.56856 10.3865 5.8619 9.86438 6.38405C9.34222 6.90621 9.04888 7.6144 9.04888 8.35283V20.8821L5.70775 16.4272C5.4484 16.0814 5.1121 15.8008 4.72549 15.6075C4.33888 15.4142 3.91257 15.3135 3.48032 15.3135H2.87613C1.67193 15.3135 0.696045 16.2894 0.696045 17.4936C0.696045 17.889 0.80324 18.2774 1.00649 18.6157L4.87246 25.0585M11.8332 1.39214V0M20.186 9.74497H21.5781M2.08818 9.74497H3.48032M5.34997 3.26178L4.36572 2.27754M18.3163 3.26178L19.3006 2.27754" stroke="#4CAF4F" stroke-width="1.39214" stroke-linejoin="round"/>
</svg>
