<svg width="46" height="39" viewBox="0 0 46 39" fill="none" xmlns="http://www.w3.org/2000/svg">
<path d="M45.2445 26.4506C45.2445 33.3703 39.635 38.9799 32.7153 38.9799L13.9214 38.9799C11.9992 38.9799 10.441 37.4217 10.441 35.4995L10.441 11.8331C10.441 7.98886 13.5574 4.87245 17.4017 4.87245L41.7642 4.87246C43.6863 4.87246 45.2445 6.43066 45.2445 8.3528L45.2445 26.4506Z" fill="#E8F5E9"/>
<path d="M18.7356 13.2329C18.5184 13.2329 18.3419 13.0566 18.3419 12.8391V12.17C18.3419 11.9528 18.5181 11.7762 18.7356 11.7762C18.9528 11.7762 19.1294 11.9525 19.1294 12.17V12.8391C19.1294 13.0566 18.9528 13.2329 18.7356 13.2329Z" fill="#103E13"/>
<path d="M17.0802 13.2329C16.863 13.2329 16.6865 13.0566 16.6865 12.8391V12.17C16.6865 11.9528 16.8627 11.7762 17.0802 11.7762C17.2974 11.7762 17.474 11.9525 17.474 12.17V12.8391C17.4737 13.0566 17.2977 13.2329 17.0802 13.2329Z" fill="#103E13"/>
<path d="M15.4249 13.2329C15.2078 13.2329 15.0312 13.0566 15.0312 12.8391V12.17C15.0312 11.9528 15.2075 11.7762 15.4249 11.7762C15.6421 11.7762 15.8187 11.9525 15.8187 12.17V12.8391C15.8187 13.0566 15.6424 13.2329 15.4249 13.2329Z" fill="#103E13"/>
<path d="M18.7356 15.9693C18.5184 15.9693 18.3419 15.793 18.3419 15.5756V14.9067C18.3419 14.6895 18.5181 14.5129 18.7356 14.5129C18.9528 14.5129 19.1294 14.6892 19.1294 14.9067V15.5756C19.1294 15.793 18.9528 15.9693 18.7356 15.9693Z" fill="#103E13"/>
<path d="M17.0802 15.9693C16.863 15.9693 16.6865 15.793 16.6865 15.5756V14.9067C16.6865 14.6895 16.8627 14.5129 17.0802 14.5129C17.2974 14.5129 17.474 14.6892 17.474 14.9067V15.5756C17.4737 15.793 17.2977 15.9693 17.0802 15.9693Z" fill="#103E13"/>
<path d="M15.4249 15.9693C15.2078 15.9693 15.0312 15.793 15.0312 15.5756V14.9067C15.0312 14.6895 15.2075 14.5129 15.4249 14.5129C15.6421 14.5129 15.8187 14.6892 15.8187 14.9067V15.5756C15.8187 15.793 15.6424 15.9693 15.4249 15.9693Z" fill="#103E13"/>
<path d="M18.7356 18.7057C18.5184 18.7057 18.3419 18.5294 18.3419 18.3119V17.6428C18.3419 17.4256 18.5181 17.249 18.7356 17.249C18.9528 17.249 19.1294 17.4253 19.1294 17.6428V18.3119C19.1294 18.5294 18.9528 18.7057 18.7356 18.7057Z" fill="#103E13"/>
<path d="M17.0802 18.7057C16.863 18.7057 16.6865 18.5294 16.6865 18.3119V17.6428C16.6865 17.4256 16.8627 17.249 17.0802 17.249C17.2974 17.249 17.474 17.4253 17.474 17.6428V18.3119C17.4737 18.5294 17.2977 18.7057 17.0802 18.7057Z" fill="#103E13"/>
<path d="M15.4249 18.7057C15.2078 18.7057 15.0312 18.5294 15.0312 18.3119V17.6428C15.0312 17.4256 15.2075 17.249 15.4249 17.249C15.6421 17.249 15.8187 17.4253 15.8187 17.6428V18.3119C15.8187 18.5294 15.6424 18.7057 15.4249 18.7057Z" fill="#103E13"/>
<path d="M18.7356 21.4415C18.5184 21.4415 18.3419 21.2652 18.3419 21.0478V20.3786C18.3419 20.1614 18.5181 19.9849 18.7356 19.9849C18.9528 19.9849 19.1294 20.1611 19.1294 20.3786V21.0478C19.1294 21.2652 18.9528 21.4415 18.7356 21.4415Z" fill="#103E13"/>
<path d="M17.0802 21.4415C16.863 21.4415 16.6865 21.2652 16.6865 21.0478V20.3786C16.6865 20.1614 16.8627 19.9849 17.0802 19.9849C17.2974 19.9849 17.474 20.1611 17.474 20.3786V21.0478C17.4737 21.2652 17.2977 21.4415 17.0802 21.4415Z" fill="#103E13"/>
<path d="M15.4249 21.4415C15.2078 21.4415 15.0312 21.2652 15.0312 21.0478V20.3786C15.0312 20.1614 15.2075 19.9849 15.4249 19.9849C15.6421 19.9849 15.8187 20.1611 15.8187 20.3786V21.0478C15.8187 21.2652 15.6424 21.4415 15.4249 21.4415Z" fill="#103E13"/>
<path d="M18.7356 24.1779C18.5184 24.1779 18.3419 24.0016 18.3419 23.7842V23.1153C18.3419 22.8981 18.5181 22.7216 18.7356 22.7216C18.9528 22.7216 19.1294 22.8978 19.1294 23.1153V23.7842C19.1294 24.0014 18.9528 24.1779 18.7356 24.1779Z" fill="#103E13"/>
<path d="M17.0802 24.1779C16.863 24.1779 16.6865 24.0016 16.6865 23.7842V23.1153C16.6865 22.8981 16.8627 22.7216 17.0802 22.7216C17.2974 22.7216 17.474 22.8978 17.474 23.1153V23.7842C17.4737 24.0014 17.2977 24.1779 17.0802 24.1779Z" fill="#103E13"/>
<path d="M15.4249 24.1779C15.2078 24.1779 15.0312 24.0016 15.0312 23.7842L15.0315 23.1153C15.0315 22.8981 15.2077 22.7216 15.4252 22.7216C15.6424 22.7216 15.819 22.8978 15.819 23.1153V23.7842C15.8187 24.0014 15.6424 24.1779 15.4249 24.1779Z" fill="#103E13"/>
<path d="M4.17672 26.9011C4.17672 27.1183 4.353 27.2949 4.57047 27.2949H28.5485C28.7657 27.2949 28.9422 27.1186 28.9422 26.9011C28.9422 26.6839 28.766 26.5074 28.5485 26.5074H27.8206V15.2023C27.8206 14.9851 27.6443 14.8085 27.4269 14.8085L20.9982 14.8088V6.65846C20.9982 6.52062 20.9262 6.39322 20.8087 6.32182C20.6915 6.25016 20.5448 6.24577 20.4229 6.30919L13.114 10.1146C12.9835 10.1824 12.9023 10.317 12.9023 10.4639V17.583H5.82878C5.61159 17.583 5.43503 17.7593 5.43503 17.9768V26.5074H4.56959C4.3524 26.5072 4.17639 26.6834 4.17639 26.9009L4.17672 26.9011ZM20.9983 20.7723H27.0335V26.5077L20.9983 26.5074V20.7723ZM20.9983 18.0361H27.0335V19.9851L20.9983 19.9848V18.0361ZM20.9983 15.5959H27.0335V17.2492H20.9983V15.5959ZM13.6893 10.7029L20.2106 7.30749V26.5071H13.6893V10.7029ZM8.16896 23.3625C8.16896 22.5454 8.81641 21.8804 9.61241 21.8804C10.4084 21.8804 11.0561 22.5451 11.0561 23.3625V26.5076H8.16896V23.3625ZM6.2225 18.3704H12.9021V26.5074H11.8436V23.3624C11.8436 22.1111 10.8431 21.093 9.61241 21.093C8.3823 21.093 7.38176 22.1109 7.38176 23.3624V26.5074H6.2225V18.3704Z" fill="#103E13"/>
</svg>
